<svg width="32" height="33" viewBox="0 0 32 33" fill="none" xmlns="http://www.w3.org/2000/svg">
<path d="M4 9.7299C4 9.02265 4.28095 8.34438 4.78105 7.84428C5.28115 7.34418 5.95942 7.06323 6.66667 7.06323H25.3333C26.0406 7.06323 26.7189 7.34418 27.219 7.84428C27.719 8.34438 28 9.02265 28 9.7299V23.0632C28 23.7705 27.719 24.4488 27.219 24.9488C26.7189 25.4489 26.0406 25.7299 25.3333 25.7299H6.66667C5.95942 25.7299 5.28115 25.4489 4.78105 24.9488C4.28095 24.4488 4 23.7705 4 23.0632V9.7299Z" stroke="white" stroke-width="2" stroke-linecap="round" stroke-linejoin="round"/>
<path d="M4 9.72998L16 17.73L28 9.72998" stroke="white" stroke-width="2" stroke-linecap="round" stroke-linejoin="round"/>
</svg>
