<svg width="100" height="101" viewBox="0 0 100 101" fill="none" xmlns="http://www.w3.org/2000/svg">
<path d="M84.631 27.5773L53.381 15.3898C52.9196 15.1359 52.4014 15.0028 51.8748 15.0028C51.3481 15.0028 50.83 15.1359 50.3685 15.3898L19.1185 27.5773C18.6285 27.847 18.22 28.2434 17.9354 28.7249C17.6508 29.2064 17.5007 29.7555 17.5007 30.3148C17.5007 30.8741 17.6508 31.4232 17.9354 31.9047C18.22 32.3862 18.6285 32.7825 19.1185 33.0523L49.1664 47.6825V82.846L36.7623 75.1273L36.2498 81.4325L50.3685 89.1981C50.83 89.452 51.3481 89.5851 51.8748 89.5851C52.4014 89.5851 52.9196 89.452 53.381 89.1981L84.631 73.6773C85.1212 73.4076 85.5299 73.0114 85.8147 72.5298C86.0994 72.0483 86.2497 71.4992 86.2498 70.9398V30.3148C86.2497 29.7554 86.0994 29.2062 85.8147 28.7247C85.5299 28.2432 85.1212 27.8469 84.631 27.5773ZM51.8748 20.8627L77.4737 30.3148L51.8748 41.8502L26.2758 30.3148L51.8748 20.8627ZM80.8331 69.0929L54.9998 82.0096V47.6794L80.8331 35.1356V69.0929Z" fill="#FF8000"/>
<path d="M26.939 49.598H5V45.9379H26.939V49.598ZM32.7342 72.6045H10.7952V68.9444H32.7342V72.6045ZM36.6667 61.1013H15.3486V57.4411H36.6667V61.1013Z" fill="#FF8000"/>
</svg>
