<svg width="100" height="101" viewBox="0 0 100 101" fill="none" xmlns="http://www.w3.org/2000/svg">
<path d="M50 88.6272C65.7415 88.6272 78.5 79.1272 78.5 62.5022C78.5 55.3772 76.125 43.5022 66.625 34.0022C67.8125 41.1272 60.6875 43.5022 60.6875 43.5022C64.25 31.6272 54.75 15.0022 40.5 12.6272C42.1957 22.1272 42.875 31.6272 31 41.1272C25.0625 45.8772 21.5 54.0899 21.5 62.5022C21.5 79.1272 34.2585 88.6272 50 88.6272ZM50 83.8772C42.1292 83.8772 35.75 79.1272 35.75 70.8147C35.75 67.2522 36.9375 61.3147 41.6875 56.5647C41.0938 60.1272 45.25 62.5022 45.25 62.5022C43.4688 56.5647 47.625 47.0647 54.75 45.8772C53.8997 50.6272 53.5625 55.3772 59.5 60.1272C62.4688 62.5022 64.25 66.6062 64.25 70.8147C64.25 79.1272 57.8708 83.8772 50 83.8772Z" fill="#FF8000"/>
</svg>
