<svg width="100" height="101" viewBox="0 0 100 101" fill="none" xmlns="http://www.w3.org/2000/svg">
<path d="M23.4258 31.6456C21.4122 31.6456 19.481 30.8457 18.0571 29.4218C16.6332 27.9979 15.8333 26.0667 15.8333 24.053C15.8333 22.0394 16.6332 20.1082 18.0571 18.6843C19.481 17.2604 21.4122 16.4604 23.4258 16.4604C25.4395 16.4604 27.3707 17.2604 28.7946 18.6843C30.2185 20.1082 31.0184 22.0394 31.0184 24.053M23.4258 31.6456C25.4395 31.6456 27.3707 30.8457 28.7946 29.4218C30.2185 27.9979 31.0184 26.0667 31.0184 24.053M23.4258 31.6456V69.6086M31.0184 24.053H68.9814M68.9814 24.053C68.9814 26.0667 69.7813 27.9979 71.2052 29.4218C72.6291 30.8457 74.5603 31.6456 76.574 31.6456M68.9814 24.053C68.9814 22.0394 69.7813 20.1082 71.2052 18.6843C72.6291 17.2604 74.5603 16.4604 76.574 16.4604C78.5877 16.4604 80.5189 17.2604 81.9428 18.6843C83.3667 20.1082 84.1666 22.0394 84.1666 24.053C84.1666 26.0667 83.3667 27.9979 81.9428 29.4218C80.5189 30.8457 78.5877 31.6456 76.574 31.6456M76.574 31.6456V69.6086M31.0184 77.2012C31.0184 79.2149 30.2185 81.1461 28.7946 82.57C27.3707 83.9939 25.4395 84.7938 23.4258 84.7938C21.4122 84.7938 19.481 83.9939 18.0571 82.57C16.6332 81.1461 15.8333 79.2149 15.8333 77.2012C15.8333 75.1875 16.6332 73.2563 18.0571 71.8324C19.481 70.4085 21.4122 69.6086 23.4258 69.6086M31.0184 77.2012C31.0184 75.1875 30.2185 73.2563 28.7946 71.8324C27.3707 70.4085 25.4395 69.6086 23.4258 69.6086M31.0184 77.2012H68.9814M68.9814 77.2012C68.9814 79.2149 69.7813 81.1461 71.2052 82.57C72.6291 83.9939 74.5603 84.7938 76.574 84.7938C78.5877 84.7938 80.5189 83.9939 81.9428 82.57C83.3667 81.1461 84.1666 79.2149 84.1666 77.2012C84.1666 75.1875 83.3667 73.2563 81.9428 71.8324C80.5189 70.4085 78.5877 69.6086 76.574 69.6086M68.9814 77.2012C68.9814 75.1875 69.7813 73.2563 71.2052 71.8324C72.6291 70.4085 74.5603 69.6086 76.574 69.6086" stroke="#FF8000" stroke-width="7.28889" stroke-linecap="round" stroke-linejoin="round"/>
<path d="M42.4075 43.0346H57.5927M50.0001 58.2198V43.0346" stroke="#FF8000" stroke-width="3.64444" stroke-linecap="round" stroke-linejoin="round"/>
</svg>
