<svg width="100" height="101" viewBox="0 0 100 101" fill="none" xmlns="http://www.w3.org/2000/svg">
<path d="M26.8073 63.3903L37.2252 83.9109C37.9767 85.3759 39.2211 86.5287 40.7391 87.1661C42.2572 87.8035 43.9516 87.8848 45.5237 87.3955C47.0957 86.9062 48.4447 85.8778 49.333 84.4915C50.2212 83.1052 50.5916 81.4498 50.3791 79.8171L48.9703 62.4079M26.8073 63.3903C23.278 62.4065 20.1974 60.2374 18.0861 57.243C15.9747 54.2487 14.9627 50.6168 15.2213 46.962C15.48 43.3072 16.9934 39.854 19.5054 37.1868C22.0174 34.5196 25.3738 32.8022 29.0065 32.3252L36.2226 31.3806C52.372 29.2664 65.6203 22.5881 70.7874 14.8364L78.0065 69.9809C71.0182 63.8204 56.5012 60.777 40.3478 62.8917L33.1318 63.8364C31.0155 64.1152 28.8642 63.9609 26.8073 63.3903Z" stroke="#FF8000" stroke-width="6.356" stroke-linecap="round" stroke-linejoin="round"/>
<path d="M44.7014 29.7981L48.8875 61.7739M75.9441 54.2255C79.0781 53.8153 81.9207 52.1768 83.8466 49.6707C85.7726 47.1645 86.6241 43.9959 86.2138 40.8619C85.8035 37.7279 84.1651 34.8853 81.6589 32.9594C79.1527 31.0334 75.9841 30.1819 72.8502 30.5922" stroke="#FF8000" stroke-width="3.178" stroke-linecap="round" stroke-linejoin="round"/>
</svg>
