<svg width="44" height="44" viewBox="0 0 44 44" fill="none" xmlns="http://www.w3.org/2000/svg">
<path d="M4 13.1666C4 12.1058 4.42143 11.0883 5.17157 10.3382C5.92172 9.58805 6.93913 9.16663 8 9.16663H36C37.0609 9.16663 38.0783 9.58805 38.8284 10.3382C39.5786 11.0883 40 12.1058 40 13.1666V33.1666C40 34.2275 39.5786 35.2449 38.8284 35.9951C38.0783 36.7452 37.0609 37.1666 36 37.1666H8C6.93913 37.1666 5.92172 36.7452 5.17157 35.9951C4.42143 35.2449 4 34.2275 4 33.1666V13.1666Z" stroke="#762D16" stroke-width="4" stroke-linecap="round" stroke-linejoin="round"/>
<path d="M4 13.1666L22 25.1666L40 13.1666" stroke="#762D16" stroke-width="4" stroke-linecap="round" stroke-linejoin="round"/>
</svg>
